<svg width="329" height="41" viewBox="0 0 329 41" fill="none" xmlns="http://www.w3.org/2000/svg">
<path d="M62.1729 30.49H58.3929V37H51.4629V12.5H62.6629C64.8796 12.5 66.8046 12.8733 68.4379 13.62C70.0712 14.3433 71.3312 15.3933 72.2179 16.77C73.1046 18.1233 73.5479 19.7217 73.5479 21.565C73.5479 23.3383 73.1279 24.89 72.2879 26.22C71.4712 27.5267 70.2929 28.5533 68.7529 29.3L74.0379 37H66.6179L62.1729 30.49ZM66.5479 21.565C66.5479 20.4217 66.1862 19.535 65.4629 18.905C64.7396 18.275 63.6662 17.96 62.2429 17.96H58.3929V25.135H62.2429C63.6662 25.135 64.7396 24.8317 65.4629 24.225C66.1862 23.595 66.5479 22.7083 66.5479 21.565Z" fill="#130042"/>
<path d="M89.7261 37.49C87.1361 37.49 84.8028 36.9417 82.7261 35.845C80.6728 34.7483 79.0511 33.2317 77.8611 31.295C76.6944 29.3583 76.1111 27.1767 76.1111 24.75C76.1111 22.3233 76.6944 20.1417 77.8611 18.205C79.0511 16.2683 80.6728 14.7517 82.7261 13.655C84.8028 12.5583 87.1361 12.01 89.7261 12.01C92.3161 12.01 94.6378 12.5583 96.6911 13.655C98.7678 14.7517 100.389 16.2683 101.556 18.205C102.746 20.1417 103.341 22.3233 103.341 24.75C103.341 27.1767 102.746 29.3583 101.556 31.295C100.389 33.2317 98.7678 34.7483 96.6911 35.845C94.6378 36.9417 92.3161 37.49 89.7261 37.49ZM89.7261 31.75C90.9628 31.75 92.0828 31.4583 93.0861 30.875C94.0894 30.2917 94.8828 29.475 95.4661 28.425C96.0494 27.3517 96.3411 26.1267 96.3411 24.75C96.3411 23.3733 96.0494 22.16 95.4661 21.11C94.8828 20.0367 94.0894 19.2083 93.0861 18.625C92.0828 18.0417 90.9628 17.75 89.7261 17.75C88.4894 17.75 87.3694 18.0417 86.3661 18.625C85.3628 19.2083 84.5694 20.0367 83.9861 21.11C83.4028 22.16 83.1111 23.3733 83.1111 24.75C83.1111 26.1267 83.4028 27.3517 83.9861 28.425C84.5694 29.475 85.3628 30.2917 86.3661 30.875C87.3694 31.4583 88.4894 31.75 89.7261 31.75Z" fill="#130042"/>
<path d="M119.186 37.49C116.619 37.49 114.309 36.9533 112.256 35.88C110.226 34.7833 108.627 33.2667 107.461 31.33C106.294 29.3933 105.711 27.2 105.711 24.75C105.711 22.3 106.294 20.1067 107.461 18.17C108.627 16.2333 110.226 14.7283 112.256 13.655C114.309 12.5583 116.619 12.01 119.186 12.01C121.426 12.01 123.444 12.4067 125.241 13.2C127.037 13.9933 128.531 15.1367 129.721 16.63L125.311 20.62C123.724 18.7067 121.799 17.75 119.536 17.75C118.206 17.75 117.016 18.0417 115.966 18.625C114.939 19.2083 114.134 20.0367 113.551 21.11C112.991 22.16 112.711 23.3733 112.711 24.75C112.711 26.1267 112.991 27.3517 113.551 28.425C114.134 29.475 114.939 30.2917 115.966 30.875C117.016 31.4583 118.206 31.75 119.536 31.75C121.799 31.75 123.724 30.7933 125.311 28.88L129.721 32.87C128.531 34.3633 127.037 35.5067 125.241 36.3C123.444 37.0933 121.426 37.49 119.186 37.49Z" fill="#130042"/>
<path d="M142.261 28.11L139.671 30.875V37H132.811V12.5H139.671V22.685L149.156 12.5H156.786L146.776 23.35L157.311 37H149.261L142.261 28.11Z" fill="#130042"/>
<path d="M178.799 31.645V37H159.129V12.5H178.344V17.855H165.989V21.985H176.874V27.165H165.989V31.645H178.799Z" fill="#130042"/>
<path d="M187.86 17.995H180.335V12.5H202.28V17.995H194.79V37H187.86V17.995Z" fill="#130042"/>
<path d="M213.403 37.49C211.42 37.49 209.495 37.245 207.628 36.755C205.761 36.265 204.245 35.6117 203.078 34.795L205.353 29.685C206.45 30.4083 207.721 30.9917 209.168 31.435C210.615 31.8783 212.038 32.1 213.438 32.1C216.098 32.1 217.428 31.435 217.428 30.105C217.428 29.405 217.043 28.8917 216.273 28.565C215.526 28.215 214.313 27.8533 212.633 27.48C210.79 27.0833 209.25 26.6633 208.013 26.22C206.776 25.7533 205.715 25.0183 204.828 24.015C203.941 23.0117 203.498 21.6583 203.498 19.955C203.498 18.4617 203.906 17.12 204.723 15.93C205.54 14.7167 206.753 13.76 208.363 13.06C209.996 12.36 211.991 12.01 214.348 12.01C215.958 12.01 217.545 12.1967 219.108 12.57C220.671 12.92 222.048 13.445 223.238 14.145L221.103 19.29C218.77 18.03 216.506 17.4 214.313 17.4C212.936 17.4 211.933 17.61 211.303 18.03C210.673 18.4267 210.358 18.9517 210.358 19.605C210.358 20.2583 210.731 20.7483 211.478 21.075C212.225 21.4017 213.426 21.74 215.083 22.09C216.95 22.4867 218.49 22.9183 219.703 23.385C220.94 23.8283 222.001 24.5517 222.888 25.555C223.798 26.535 224.253 27.8767 224.253 29.58C224.253 31.05 223.845 32.38 223.028 33.57C222.211 34.76 220.986 35.7167 219.353 36.44C217.72 37.14 215.736 37.49 213.403 37.49Z" fill="#130042"/>
<path d="M250.764 12.5V37H243.834V27.445H234.384V37H227.454V12.5H234.384V21.705H243.834V12.5H250.764Z" fill="#130042"/>
<path d="M268.007 37.49C265.417 37.49 263.084 36.9417 261.007 35.845C258.954 34.7483 257.332 33.2317 256.142 31.295C254.976 29.3583 254.392 27.1767 254.392 24.75C254.392 22.3233 254.976 20.1417 256.142 18.205C257.332 16.2683 258.954 14.7517 261.007 13.655C263.084 12.5583 265.417 12.01 268.007 12.01C270.597 12.01 272.919 12.5583 274.972 13.655C277.049 14.7517 278.671 16.2683 279.837 18.205C281.027 20.1417 281.622 22.3233 281.622 24.75C281.622 27.1767 281.027 29.3583 279.837 31.295C278.671 33.2317 277.049 34.7483 274.972 35.845C272.919 36.9417 270.597 37.49 268.007 37.49ZM268.007 31.75C269.244 31.75 270.364 31.4583 271.367 30.875C272.371 30.2917 273.164 29.475 273.747 28.425C274.331 27.3517 274.622 26.1267 274.622 24.75C274.622 23.3733 274.331 22.16 273.747 21.11C273.164 20.0367 272.371 19.2083 271.367 18.625C270.364 18.0417 269.244 17.75 268.007 17.75C266.771 17.75 265.651 18.0417 264.647 18.625C263.644 19.2083 262.851 20.0367 262.267 21.11C261.684 22.16 261.392 23.3733 261.392 24.75C261.392 26.1267 261.684 27.3517 262.267 28.425C262.851 29.475 263.644 30.2917 264.647 30.875C265.651 31.4583 266.771 31.75 268.007 31.75Z" fill="#130042"/>
<path d="M304.922 31.645V37H285.252V12.5H304.467V17.855H292.112V21.985H302.997V27.165H292.112V31.645H304.922Z" fill="#130042"/>
<path d="M317.378 37.49C315.394 37.49 313.469 37.245 311.603 36.755C309.736 36.265 308.219 35.6117 307.053 34.795L309.328 29.685C310.424 30.4083 311.696 30.9917 313.143 31.435C314.589 31.8783 316.013 32.1 317.413 32.1C320.073 32.1 321.403 31.435 321.403 30.105C321.403 29.405 321.018 28.8917 320.248 28.565C319.501 28.215 318.288 27.8533 316.608 27.48C314.764 27.0833 313.224 26.6633 311.988 26.22C310.751 25.7533 309.689 25.0183 308.803 24.015C307.916 23.0117 307.473 21.6583 307.473 19.955C307.473 18.4617 307.881 17.12 308.698 15.93C309.514 14.7167 310.728 13.76 312.338 13.06C313.971 12.36 315.966 12.01 318.323 12.01C319.933 12.01 321.519 12.1967 323.083 12.57C324.646 12.92 326.023 13.445 327.213 14.145L325.078 19.29C322.744 18.03 320.481 17.4 318.288 17.4C316.911 17.4 315.908 17.61 315.278 18.03C314.648 18.4267 314.333 18.9517 314.333 19.605C314.333 20.2583 314.706 20.7483 315.453 21.075C316.199 21.4017 317.401 21.74 319.058 22.09C320.924 22.4867 322.464 22.9183 323.678 23.385C324.914 23.8283 325.976 24.5517 326.863 25.555C327.773 26.535 328.228 27.8767 328.228 29.58C328.228 31.05 327.819 32.38 327.003 33.57C326.186 34.76 324.961 35.7167 323.328 36.44C321.694 37.14 319.711 37.49 317.378 37.49Z" fill="#130042"/>
<path d="M20.5129 1.5L11.5129 14L35.0129 31H39.0129H43.5129V27L36.5129 24L33.5129 19L31.5129 12.5V6L20.5129 1.5Z" fill="#694E9F"/>
<path d="M10.0129 16.5L12.0129 13L36.5129 31.5H44.0129L42.0129 36L34.0129 35.5L12.0129 20L10.0129 16.5Z" fill="#558DCA" stroke="black"/>
<path d="M9.86133 13.9368L19.4427 0.52296C19.7771 0.0549162 20.3879 -0.124353 20.9221 0.0894247L32.4232 4.68988C32.8971 4.87949 33.208 5.33857 33.208 5.84897V14.3316C33.208 14.6086 33.2734 14.8861 33.3974 15.1341L37.1581 22.6556C37.3432 23.0259 37.6617 23.3021 38.0546 23.4331L42.0445 24.7631C43.6382 25.2944 44.709 26.7801 44.709 28.4601V33.1608C44.7089 35.2778 42.9867 37 40.8697 37H35.3618C34.3753 37 33.4322 36.6933 32.6344 36.113L10.8943 20.3021C8.86943 18.8296 8.40613 15.9741 9.86133 13.9368ZM41.2548 27.1314L37.2649 25.8014C36.2393 25.4595 35.4083 24.7386 34.9249 23.7719L34.5371 22.9962L33.4742 24.0591C33.2304 24.3027 32.911 24.4247 32.5915 24.4247C32.2721 24.4247 31.9527 24.3027 31.7089 24.0591C31.2214 23.5716 31.2214 22.7813 31.7089 22.2937L33.3602 20.6422L32.4518 18.8254L30.3461 20.931C30.1023 21.1747 29.7829 21.2967 29.4635 21.2967C29.1439 21.2967 28.8246 21.1747 28.5808 20.931C28.0934 20.4435 28.0934 19.6531 28.5808 19.1656L31.275 16.4715L31.1644 16.2503C30.868 15.6576 30.7114 14.9941 30.7114 14.3314V14.2731L29.5303 15.4543C29.2865 15.6979 28.967 15.8199 28.6476 15.8199C28.3282 15.8199 28.0088 15.6979 27.765 15.4543C27.2775 14.9668 27.2775 14.1763 27.765 13.6889L30.7115 10.7422V6.69411L20.9049 2.77136L13.2523 13.485L37.1012 30.4567H42.2123V28.46C42.2123 27.8562 41.8275 27.3223 41.2548 27.1314ZM12.3628 18.2831L34.1028 34.094C34.4711 34.3619 34.9064 34.5034 35.3618 34.5034H40.8697C41.6101 34.5034 42.2123 33.9011 42.2123 33.1608V32.5789H36.7622C36.5417 32.5789 36.3267 32.5101 36.1469 32.3825L12.0185 15.212L11.8928 15.3879C11.231 16.3145 11.4417 17.6132 12.3628 18.2831Z" fill="#130042"/>
<path d="M14.6647 31.9522C12.8624 34.3121 4.44134 37.2241 4.44134 37.2241C4.44134 37.2241 5.03377 28.3334 6.83605 25.9735C8.63833 23.6136 11.8519 23.0388 14.0137 24.6898C16.1755 26.3408 16.4669 29.5922 14.6647 31.9522Z" fill="#FCDE00"/>
<path fill-rule="evenodd" clip-rule="evenodd" d="M11.3035 32.0414C12.3226 31.4504 12.8826 30.9905 13.0752 30.7383C14.3094 29.1221 13.9554 27.1618 12.7998 26.2793C11.6442 25.3967 9.6598 25.5712 8.42554 27.1874C8.23298 27.4395 7.93667 28.1009 7.63474 29.2396C7.35257 30.3038 7.12246 31.555 6.9412 32.7772C6.86834 33.2685 6.80425 33.749 6.74835 34.2032C7.17181 34.0297 7.61851 33.8414 8.07328 33.6418C9.20463 33.1452 10.3511 32.5938 11.3035 32.0414ZM6.50993 36.4531C9.12508 35.4291 13.4351 33.5622 14.6647 31.9522C16.4669 29.5922 16.1755 26.3408 14.0137 24.6898C11.8519 23.0388 8.63833 23.6136 6.83605 25.9735C5.60651 27.5835 4.94005 32.233 4.64064 35.0255C4.50117 36.3263 4.44134 37.2241 4.44134 37.2241C4.44134 37.2241 5.29175 36.93 6.50993 36.4531Z" fill="#130042"/>
<path fill-rule="evenodd" clip-rule="evenodd" d="M7.85298 24.9367C7.70407 28.3523 7.64636 32.265 8.14649 32.5C8.65799 32.7403 12.3643 31.5904 15.4548 30.5579C16.2936 28.4373 15.7731 26.0335 14.0136 24.6898C12.2153 23.3164 9.68909 23.4832 7.85298 24.9367Z" fill="#FE571B"/>
<path fill-rule="evenodd" clip-rule="evenodd" d="M11.3036 32.0414C12.3227 31.4504 12.8827 30.9905 13.0752 30.7383C14.3095 29.1221 13.9555 27.1618 12.7999 26.2793C11.6442 25.3967 9.65987 25.5712 8.42561 27.1874C8.23304 27.4395 7.93673 28.1009 7.63481 29.2396C7.35264 30.3038 7.12253 31.555 6.94127 32.7772C6.86841 33.2685 6.80431 33.749 6.74842 34.2032C7.17188 34.0297 7.61858 33.8414 8.07335 33.6418C9.2047 33.1452 10.3512 32.5938 11.3036 32.0414ZM6.50999 36.4531C9.12515 35.4291 13.4352 33.5622 14.6647 31.9522C16.467 29.5922 16.1756 26.3408 14.0137 24.6898C11.8519 23.0388 8.6384 23.6136 6.83612 25.9735C5.60657 27.5835 4.94012 32.233 4.6407 35.0255C4.50123 36.3263 4.44141 37.2241 4.44141 37.2241C4.44141 37.2241 5.29182 36.93 6.50999 36.4531Z" fill="#130042"/>
</svg>
